<svg width="70" height="71" viewBox="0 0 70 71" fill="none" xmlns="http://www.w3.org/2000/svg">
<path d="M0 25.2383C0 11.4312 11.1929 0.238281 25 0.238281H45C58.8071 0.238281 70 11.4312 70 25.2383V45.2383C70 59.0454 58.8071 70.2383 45 70.2383H25C11.1929 70.2383 0 59.0454 0 45.2383V25.2383Z" fill="#FF4D00"/>
<g clip-path="url(#clip0_2572_128)">
<path d="M33.0423 57.2087C32.7525 57.1743 32.2273 57.1083 31.8754 57.0621L31.2354 56.9782V50.4047V43.8312L26.578 48.4839L21.9206 53.1367L21.1197 52.5187C20.2153 51.8208 17.6594 49.2427 17.0076 48.3708L16.5777 47.7958L21.2329 43.1415L25.8882 38.4871H19.3107H12.7333L12.6184 37.7724C12.4627 36.8038 12.4599 33.2306 12.6139 31.9787L12.7388 30.963H19.3135H25.8882L21.2329 26.3087L16.5777 21.6544L17.0075 21.0794C17.6594 20.2074 20.2153 17.6293 21.1197 16.9314L21.9206 16.3134L26.578 20.9662L31.2354 25.619V19.0454V12.4719L31.9506 12.3534C32.8767 12.1999 37.1228 12.1999 38.0489 12.3534L38.7641 12.4719V19.0454V25.619L43.4215 20.9662L48.0789 16.3134L48.8798 16.9314C49.7842 17.6293 52.3401 20.2074 52.992 21.0794L53.4218 21.6544L48.7666 26.3087L44.1113 30.963H50.6888H57.2662L57.3848 31.6778C57.5384 32.6032 57.5384 36.8469 57.3848 37.7724L57.2662 38.4871H50.6888H44.1113L48.7666 43.1415L53.4218 47.7958L52.992 48.3708C52.3401 49.2427 49.7842 51.8208 48.8798 52.5187L48.0789 53.1367L43.4215 48.4839L38.7641 43.8312V50.3951V56.9591L38.2747 57.058C37.6664 57.1811 33.7574 57.2936 33.0423 57.2087ZM36.5095 40.2858C37.2112 40.199 38.2405 39.9937 38.7968 39.8294L39.8083 39.5307L40.1081 38.5199C40.5954 36.8764 40.7699 34.9414 40.5758 33.3331C40.4834 32.5675 40.2729 31.4862 40.1081 30.9302L39.8083 29.9194L38.7968 29.6198C37.1524 29.1327 35.2163 28.9584 33.607 29.1523C32.8409 29.2447 31.759 29.455 31.2027 29.6198L30.1912 29.9194L29.8921 30.9302C29.2479 33.1074 29.1743 35.3305 29.6718 37.5843C30.0988 39.5186 30.0855 39.4993 31.2157 39.8357C33.0374 40.3778 34.6529 40.5152 36.5095 40.2858Z" fill="white"/>
</g>
<defs>
<clipPath id="clip0_2572_128">
<rect width="45" height="45" fill="white" transform="translate(12.5 12.2383)"/>
</clipPath>
</defs>
</svg>
