<svg width="450" height="466" viewBox="0 0 450 466" fill="none" xmlns="http://www.w3.org/2000/svg">
<g clip-path="url(#clip0_3130_397)">
<path d="M444.511 147.5V145.138V54.4971C444.511 24.4439 420.157 0.0803223 390.115 0.0803223H60.3966C30.3544 0.0803223 6.00036 24.4439 6.00036 54.4971V145.138V152C6.00036 161.862 6.00036 163.076 6.00036 167V202C6.00036 205.924 6.00036 213.5 6.00036 217V222.046V237V243C6.00036 250 6.00036 249.576 6.00036 253.5V273.5L6.0015 294C6.0015 297.924 5.99955 299.092 6.00036 308V313.908V863.006C6.00036 893.06 30.3544 917.423 60.3966 917.423H390.115C420.157 917.423 444.511 893.059 444.511 863.006V260.5V258.5C444.511 256.5 444.511 258.284 444.511 254.361V203.784L444.511 152.5C444.512 148.576 444.511 151.362 444.511 147.5Z" fill="#24242D"/>
<path d="M390.1 935H58.9702C33.6012 935 13.0352 914.421 13.0352 889.036V54.9641C13.0352 29.5791 33.6008 9 58.9702 9H390.1C415.47 9 436.035 29.5791 436.035 54.9641V889.035C436.036 914.421 415.47 935 390.1 935Z" fill="white"/>
<path d="M59.9219 41V29.2812L57.1777 31.3613L56.3574 30.1016L60.1953 27.2598H61.6016V41H59.9219ZM68.4387 41.1172C66.9087 41.1172 65.6652 40.502 64.7082 39.2715C63.7577 38.041 63.2824 36.332 63.2824 34.1445C63.2824 32.7773 63.481 31.5697 63.8781 30.5215C64.2818 29.4733 64.8742 28.6497 65.6555 28.0508C66.4432 27.4453 67.371 27.1426 68.4387 27.1426C69.1874 27.1426 69.8742 27.2988 70.4992 27.6113C71.1307 27.9238 71.6743 28.373 72.1301 28.959C72.5923 29.5384 72.9504 30.2741 73.2043 31.166C73.4647 32.0514 73.5949 33.0443 73.5949 34.1445C73.5949 35.5052 73.3964 36.7096 72.9992 37.7578C72.6021 38.7995 72.0096 39.6198 71.2219 40.2188C70.4406 40.8177 69.5129 41.1172 68.4387 41.1172ZM68.4387 39.5645C69.5259 39.5645 70.369 39.0762 70.968 38.0996C71.5734 37.123 71.8762 35.8047 71.8762 34.1445C71.8762 32.4258 71.5637 31.0879 70.9387 30.1309C70.3137 29.1738 69.4803 28.6953 68.4387 28.6953C67.3645 28.6953 66.5214 29.1868 65.9094 30.1699C65.3039 31.153 65.0012 32.4779 65.0012 34.1445C65.0012 35.8503 65.3137 37.1816 65.9387 38.1387C66.5702 39.0892 67.4035 39.5645 68.4387 39.5645ZM76.5941 33.1582C76.3663 33.3861 76.0863 33.5 75.7543 33.5C75.4223 33.5 75.1391 33.3861 74.9047 33.1582C74.6768 32.9303 74.5629 32.6504 74.5629 32.3184C74.5629 31.9863 74.6768 31.7064 74.9047 31.4785C75.1391 31.2507 75.4223 31.1367 75.7543 31.1367C76.0863 31.1367 76.3663 31.2507 76.5941 31.4785C76.822 31.7064 76.9359 31.9863 76.9359 32.3184C76.9359 32.6504 76.822 32.9303 76.5941 33.1582ZM76.5941 40.8047C76.3663 41.026 76.0863 41.1367 75.7543 41.1367C75.4223 41.1367 75.1391 41.026 74.9047 40.8047C74.6768 40.5768 74.5629 40.2969 74.5629 39.9648C74.5629 39.6328 74.6768 39.3529 74.9047 39.125C75.1391 38.8971 75.4223 38.7832 75.7543 38.7832C76.0863 38.7832 76.3663 38.8971 76.5941 39.125C76.822 39.3529 76.9359 39.6328 76.9359 39.9648C76.9359 40.2969 76.822 40.5768 76.5941 40.8047ZM83.9098 41V38.5781H77.523V37.377L84.1637 27.2598H85.5895V37.0645H87.5914V38.5781H85.5895V41H83.9098ZM79.4859 37.1035H83.9684V30.1211L79.4859 37.1035ZM90.6492 41V29.2812L87.9051 31.3613L87.0848 30.1016L90.9227 27.2598H92.3289V41H90.6492Z" fill="#24242D"/>
<path d="M182.957 35C182.957 31.6863 185.643 29 188.957 29H258.957C262.271 29 264.957 31.6863 264.957 35C264.957 38.3137 262.271 41 258.957 41H208.957H188.957C185.643 41 182.957 38.3137 182.957 35Z" fill="#333343"/>
<rect x="23.0352" y="61" width="402" height="451" rx="40" fill="#EDEFFE"/>
<g clip-path="url(#clip1_3130_397)">
<path fill-rule="evenodd" clip-rule="evenodd" d="M377.386 29C375.89 29 374.672 30.1682 374.672 31.6025V38.3897C374.672 39.8239 375.89 40.9922 377.386 40.9922H395.449C396.945 40.9922 398.163 39.8239 398.163 38.3897V37.068H398.347C398.684 37.068 398.955 36.8076 398.955 36.4842V33.5077C398.955 33.1844 398.684 32.9241 398.347 32.9241H398.163V31.6025C398.163 30.1682 396.945 29 395.449 29H377.386ZM377.386 29.8756H395.449C396.454 29.8756 397.25 30.6383 397.25 31.6025V38.3897C397.25 39.3538 396.454 40.1162 395.449 40.1162H377.386C376.38 40.1162 375.585 39.3538 375.585 38.3897V31.6025C375.585 30.6383 376.38 29.8756 377.386 29.8756ZM377.198 31.045C377.006 31.045 376.851 31.1934 376.851 31.3778V38.6142C376.851 38.7986 377.006 38.947 377.198 38.947H391.214C391.407 38.947 391.561 38.7986 391.561 38.6142V31.3778C391.561 31.1934 391.407 31.045 391.214 31.045H377.198Z" fill="#333343"/>
<path fill-rule="evenodd" clip-rule="evenodd" d="M357.064 29.0848C356.968 29.0838 356.872 29.084 356.775 29.0852C353.697 29.1269 350.806 30.3726 348.952 32.5054C348.81 32.6686 348.741 32.8793 348.761 33.091C348.781 33.3027 348.888 33.4981 349.058 33.6342C349.229 33.7703 349.448 33.836 349.669 33.8168C349.89 33.7977 350.094 33.6952 350.236 33.5319C351.744 31.7967 354.179 30.7236 356.799 30.6881C359.42 30.6526 361.897 31.6598 363.473 33.3557C363.546 33.4343 363.635 33.4983 363.734 33.5441C363.832 33.5899 363.94 33.6165 364.049 33.6225C364.159 33.6286 364.269 33.6138 364.372 33.5792C364.476 33.5445 364.571 33.4906 364.653 33.4206C364.819 33.2791 364.919 33.0805 364.932 32.8683C364.944 32.6561 364.869 32.4477 364.721 32.289C362.849 30.275 360.036 29.1173 357.064 29.0848ZM356.934 32.2758C354.898 32.2757 352.861 32.9649 351.156 34.3438C350.987 34.4809 350.881 34.6768 350.862 34.8886C350.843 35.1004 350.913 35.3107 351.056 35.4732C351.127 35.5537 351.213 35.6201 351.311 35.6684C351.408 35.7168 351.515 35.7463 351.624 35.7552C351.734 35.7642 351.844 35.7523 351.948 35.7204C352.053 35.6885 352.15 35.6372 352.234 35.5693C355.076 33.2708 358.793 33.2711 361.634 35.57C361.804 35.7071 362.023 35.774 362.244 35.756C362.465 35.7381 362.669 35.6367 362.812 35.4743C362.883 35.3938 362.936 35.3008 362.97 35.2005C363.003 35.1001 363.015 34.9945 363.006 34.8896C362.997 34.7847 362.966 34.6826 362.916 34.5891C362.865 34.4956 362.796 34.4126 362.712 34.3447C361.008 32.9656 358.971 32.276 356.934 32.2758ZM356.879 35.6153C355.69 35.6231 354.502 35.9799 353.422 36.6847C353.331 36.7439 353.253 36.8196 353.193 36.9076C353.133 36.9956 353.091 37.0942 353.071 37.1976C353.05 37.301 353.051 37.4072 353.073 37.5103C353.096 37.6134 353.139 37.7112 353.201 37.7983C353.325 37.974 353.518 38.0951 353.735 38.1348C353.953 38.1746 354.178 38.1297 354.362 38.0102C356.053 36.9069 357.726 36.8964 359.419 37.9752C359.51 38.0334 359.613 38.0738 359.721 38.0941C359.828 38.1144 359.939 38.1141 360.047 38.0933C360.154 38.0725 360.257 38.0315 360.348 37.9728C360.439 37.9141 360.517 37.8387 360.578 37.751C360.7 37.574 360.745 37.3574 360.701 37.1491C360.657 36.9407 360.529 36.7576 360.344 36.64C359.259 35.9487 358.068 35.6074 356.879 35.6153ZM356.934 38.9236C356.798 38.9236 356.663 38.9493 356.538 38.9992C356.412 39.049 356.298 39.1221 356.202 39.2143C356.106 39.3064 356.03 39.4158 355.978 39.5361C355.926 39.6565 355.899 39.7855 355.899 39.9158C355.899 40.179 356.008 40.4313 356.202 40.6174C356.396 40.8035 356.659 40.908 356.934 40.908C357.208 40.908 357.471 40.8035 357.665 40.6174C357.859 40.4313 357.968 40.179 357.968 39.9158C357.968 39.6527 357.859 39.4003 357.665 39.2143C357.471 39.0282 357.208 38.9237 356.934 38.9236Z" fill="#333343"/>
<path fill-rule="evenodd" clip-rule="evenodd" d="M339.578 29.0615C340.339 29.0615 340.956 29.6532 340.956 30.3832V39.5461C340.956 40.276 340.339 40.8677 339.578 40.8678C338.817 40.8678 338.199 40.276 338.199 39.5461V30.3832C338.199 29.6532 338.817 29.0614 339.578 29.0615ZM335.041 30.8977C335.802 30.8977 336.419 31.4895 336.419 32.2195V39.5863C336.419 40.3163 335.802 40.9081 335.041 40.9081C334.28 40.9081 333.663 40.3163 333.663 39.5863V32.2195C333.663 31.4895 334.28 30.8977 335.041 30.8977ZM330.654 32.5878C331.415 32.5877 332.032 33.1795 332.032 33.9094V39.6596C332.032 40.3896 331.415 40.9814 330.654 40.9814C329.892 40.9814 329.275 40.3896 329.275 39.6596V33.9094C329.275 33.1795 329.892 32.5878 330.654 32.5878ZM326.42 34.0237C327.181 34.0238 327.798 34.6155 327.798 35.3454V39.6782C327.798 40.4082 327.181 41 326.42 41C325.659 41 325.042 40.4082 325.042 39.6782V35.3454C325.042 34.6154 325.659 34.0237 326.42 34.0237ZM322.335 36.1939C323.096 36.1939 323.713 36.7857 323.713 37.5156V39.5767C323.714 40.3066 323.096 40.8984 322.335 40.8984C321.574 40.8985 320.957 40.3067 320.957 39.5767V37.5156C320.957 36.7856 321.574 36.1939 322.335 36.1939Z" fill="#333343"/>
</g>
</g>
<defs>
<clipPath id="clip0_3130_397">
<rect width="450" height="466" fill="white"/>
</clipPath>
<clipPath id="clip1_3130_397">
<rect width="78" height="12" fill="white" transform="translate(320.957 29)"/>
</clipPath>
</defs>
</svg>
